<svg width="25" height="25" viewBox="0 0 25 25" fill="none" xmlns="http://www.w3.org/2000/svg">
    <path d="M12.4541 22.6279C17.9769 22.6279 22.4541 18.1508 22.4541 12.6279C22.4541 7.10508 17.9769 2.62793 12.4541 2.62793C6.93125 2.62793 2.4541 7.10508 2.4541 12.6279C2.4541 18.1508 6.93125 22.6279 12.4541 22.6279Z" stroke="#5f6379" stroke-width="2" stroke-linecap="round" stroke-linejoin="round"/>
    <path d="M9.54395 9.62801C9.77905 8.95968 10.2431 8.39612 10.8539 8.03714C11.4647 7.67817 12.1828 7.54695 12.8811 7.66672C13.5794 7.7865 14.2128 8.14954 14.669 8.69154C15.1253 9.23354 15.375 9.91953 15.3739 10.628C15.3739 12.628 12.3739 13.628 12.3739 13.628" stroke="#5f6379" stroke-width="2" stroke-linecap="round" stroke-linejoin="round"/>
    <path d="M12.4541 17.6279H12.4641" stroke="#5f6379" stroke-width="2" stroke-linecap="round" stroke-linejoin="round"/>
    </svg>
    