<svg width="25" height="25" viewBox="0 0 25 25" fill="none" xmlns="http://www.w3.org/2000/svg">
    <path d="M18.4619 8.04395C18.4619 6.45265 17.8298 4.92652 16.7046 3.8013C15.5793 2.67609 14.0532 2.04395 12.4619 2.04395C10.8706 2.04395 9.34449 2.67609 8.21927 3.8013C7.09406 4.92652 6.46191 6.45265 6.46191 8.04395C6.46191 15.0439 3.46191 17.0439 3.46191 17.0439H21.4619C21.4619 17.0439 18.4619 15.0439 18.4619 8.04395Z" stroke="#5f6379" stroke-width="2" stroke-linecap="round" stroke-linejoin="round"/>
    <path d="M14.1914 21.0439C14.0156 21.347 13.7633 21.5986 13.4597 21.7735C13.1561 21.9484 12.8118 22.0404 12.4614 22.0404C12.1111 22.0404 11.7668 21.9484 11.4632 21.7735C11.1596 21.5986 10.9073 21.347 10.7314 21.0439" stroke="#5f6379" stroke-width="2" stroke-linecap="round" stroke-linejoin="round"/>
    </svg>
    