<svg id="Layer_1" data-name="Layer 1" xmlns="http://www.w3.org/2000/svg" viewBox="0 0 100 100"><defs><style>.cls-1{fill:#8228bf;}.cls-2{fill:#fff;}</style></defs><title>Rx UI</title><rect class="cls-1" width="100" height="100"/><path class="cls-2" d="M79.06,48.36,72.8,58.83l6.29,10.22h-4l-5.09-8.3a3.41,3.41,0,0,1-.48-1.92,4.28,4.28,0,0,1,.12-1A3.14,3.14,0,0,1,70,57l5.14-8.58Z"/><path class="cls-2" d="M61.33,48.34l5.17,8.58a3,3,0,0,1,.33.84,4.36,4.36,0,0,1,.12,1,4.47,4.47,0,0,1-.12,1.06,3.09,3.09,0,0,1-.35.86L61.4,69H57.46L63.72,58.8,57.44,48.35Z"/><path class="cls-2" d="M36.94,53.24c6.58-.33,11.69-3.55,11.68-11.22-.18-8.21-5.78-11.52-13.18-11.51H24.37a3.61,3.61,0,0,0-3.61,3.61l0,34.9h4.57l0-33.94H35.5c5-.12,8.54,1.62,8.55,7s-3.31,7-8.53,7H30.45l-2.7,4.25h3.53L43.75,69h5.6Z"/></svg>